<svg xmlns="http://www.w3.org/2000/svg" width="439" height="496" viewBox="0 0 439 496" fill="none">
<path d="M283.627 45.5723C281.409 37.5902 273.141 32.9169 265.159 35.1341C257.177 37.3514 252.504 45.6195 254.721 53.6016L283.627 45.5723ZM259.2 156.257C279.901 133.814 297.756 96.4367 283.627 45.5723L254.721 53.6016C265.592 92.7371 252.113 119.693 237.148 135.917L259.2 156.257Z" fill="black"/>
<path d="M400.625 94.8401C362.774 68.2738 290.599 48.0045 270.007 157.8L400.625 94.8401Z" fill="#3BB777"/>
<path d="M400.611 94.8108C397.815 140.969 368.711 210.057 269.993 157.77L400.611 94.8108Z" fill="#229857"/>
<mask id="mask0" mask-type="alpha" maskUnits="userSpaceOnUse" x="241" y="35" width="198" height="176">
<path d="M405.732 91.1076C367.882 64.5413 295.706 44.272 275.114 154.067C373.314 206.032 402.704 137.368 405.732 91.1076Z" stroke="black" stroke-width="15"/>
</mask>
<g mask="url(#mask0)">
<rect x="404.869" y="-13.8115" width="98" height="241" transform="rotate(64.2654 404.869 -13.8115)" fill="black"/>
<rect x="446.553" y="72.667" width="98" height="241" transform="rotate(64.2654 446.553 72.667)" fill="black"/>
</g>
<mask id="path-7-inside-1" fill="white">
<path fill-rule="evenodd" clip-rule="evenodd" d="M257.246 443.233C301.423 414.752 325.174 344.924 325.174 275.037C325.174 184.214 266.052 110.587 193.122 110.587C153.527 110.587 111.479 123.241 89.082 158.363C75.3291 179.93 70.7504 211.683 66.352 242.184C65.3953 248.819 64.4471 255.395 63.4149 261.793C28.3006 307.035 -6.92501 377.884 1.17363 423.087C9.0142 466.849 57.1736 505.091 124.174 493.087C162.371 486.243 225.687 468.413 257.246 443.233Z"/>
</mask>
<path fill-rule="evenodd" clip-rule="evenodd" d="M257.246 443.233C301.423 414.752 325.174 344.924 325.174 275.037C325.174 184.214 266.052 110.587 193.122 110.587C153.527 110.587 111.479 123.241 89.082 158.363C75.3291 179.93 70.7504 211.683 66.352 242.184C65.3953 248.819 64.4471 255.395 63.4149 261.793C28.3006 307.035 -6.92501 377.884 1.17363 423.087C9.0142 466.849 57.1736 505.091 124.174 493.087C162.371 486.243 225.687 468.413 257.246 443.233Z" fill="url(#paint0_linear)"/>
<path d="M257.246 443.233L246.409 426.423L245.561 426.97L244.772 427.599L257.246 443.233ZM89.082 158.363L72.2188 147.61V147.61L89.082 158.363ZM66.352 242.184L46.5567 239.33L46.5567 239.33L66.352 242.184ZM63.4149 261.793L79.2144 274.056L82.3462 270.021L83.1596 264.978L63.4149 261.793ZM1.17363 423.087L-18.5129 426.614L1.17363 423.087ZM124.174 493.087L127.701 512.773L124.174 493.087ZM305.174 275.037C305.174 307.862 299.575 340.311 289.113 367.474C278.567 394.854 263.734 415.254 246.409 426.423L268.083 460.042C294.935 442.731 314.066 413.976 326.44 381.851C338.897 349.508 345.174 312.1 345.174 275.037H305.174ZM193.122 130.587C251.133 130.587 305.174 190.94 305.174 275.037H345.174C345.174 177.488 280.971 90.5869 193.122 90.5869V130.587ZM105.945 169.116C123.063 142.273 156.709 130.587 193.122 130.587V90.5869C150.346 90.5869 99.8951 104.209 72.2188 147.61L105.945 169.116ZM86.1472 245.039C88.3725 229.607 90.5005 214.949 93.6731 201.522C96.8577 188.045 100.8 177.185 105.945 169.116L72.2188 147.61C63.6112 161.108 58.3876 176.908 54.745 192.324C51.0905 207.791 48.7299 224.26 46.5567 239.33L86.1472 245.039ZM83.1596 264.978C84.2231 258.386 85.195 251.643 86.1472 245.039L46.5567 239.33C45.5955 245.996 44.6711 252.403 43.6701 258.608L83.1596 264.978ZM20.8602 419.56C17.8486 402.751 22.7915 378.156 34.53 350.197C45.9778 322.931 62.6376 295.414 79.2144 274.056L47.6154 249.53C29.0779 273.414 10.5677 303.943 -2.35117 334.712C-14.9794 364.79 -23.6 398.22 -18.5129 426.614L20.8602 419.56ZM120.647 473.4C62.8422 483.757 26.4653 450.845 20.8602 419.56L-18.5129 426.614C-8.43692 482.853 51.505 526.425 127.701 512.773L120.647 473.4ZM244.772 427.599C231.698 438.03 210.576 447.893 186.682 456.128C163.194 464.223 138.823 470.144 120.647 473.4L127.701 512.773C147.721 509.186 174.107 502.771 199.716 493.945C224.919 485.258 251.234 473.615 269.719 458.867L244.772 427.599Z" fill="black" mask="url(#path-7-inside-1)"/>
<g filter="url(#filter0_b)">
<circle cx="141.174" cy="166.587" r="13" fill="white"/>
</g>
<g filter="url(#filter1_b)">
<path d="M131.037 193.218C133.595 188.323 131.7 182.282 126.805 179.724C121.91 177.166 115.869 179.061 113.311 183.956L131.037 193.218ZM97.1743 256.492C97.122 262.015 101.557 266.534 107.079 266.586C112.602 266.639 117.121 262.204 117.173 256.682L97.1743 256.492ZM113.311 183.956C111.469 187.481 107.148 194.142 103.647 205.467C100.144 216.798 97.3992 232.713 97.1743 256.492L117.173 256.682C117.385 234.332 119.958 220.422 122.755 211.374C125.554 202.319 128.515 198.044 131.037 193.218L113.311 183.956Z" fill="white"/>
</g>
<defs>
<filter id="filter0_b" x="124.174" y="149.587" width="34" height="34" filterUnits="userSpaceOnUse" color-interpolation-filters="sRGB">
<feFlood flood-opacity="0" result="BackgroundImageFix"/>
<feGaussianBlur in="BackgroundImage" stdDeviation="2"/>
<feComposite in2="SourceAlpha" operator="in" result="effect1_backgroundBlur"/>
<feBlend mode="normal" in="SourceGraphic" in2="effect1_backgroundBlur" result="shape"/>
</filter>
<filter id="filter1_b" x="93.1738" y="174.585" width="43.0021" height="96.0021" filterUnits="userSpaceOnUse" color-interpolation-filters="sRGB">
<feFlood flood-opacity="0" result="BackgroundImageFix"/>
<feGaussianBlur in="BackgroundImage" stdDeviation="2"/>
<feComposite in2="SourceAlpha" operator="in" result="effect1_backgroundBlur"/>
<feBlend mode="normal" in="SourceGraphic" in2="effect1_backgroundBlur" result="shape"/>
</filter>
<linearGradient id="paint0_linear" x1="153.174" y1="326.587" x2="57.6739" y2="469.087" gradientUnits="userSpaceOnUse">
<stop stop-color="#FFA200"/>
<stop offset="0.609375" stop-color="#FFCC22"/>
<stop offset="1" stop-color="#FFEA47"/>
</linearGradient>
</defs>
</svg>

